Coordinates
version=1
nRows=18
nColumns=34
inDegrees=no

Units are S.I. units (second, meters, Newtons, ...)
If the header above contains a line with 'inDegrees', this indicates whether rotational values are in degrees (yes) or radians (no).

endheader
time	pelvis_tilt	pelvis_list	pelvis_rotation	pelvis_tx	pelvis_ty	pelvis_tz	hip_flexion_r	hip_adduction_r	hip_rotation_r	knee_angle_r	ankle_angle_r	subtalar_angle_r	mtp_angle_r	hip_flexion_l	hip_adduction_l	hip_rotation_l	knee_angle_l	ankle_angle_l	subtalar_angle_l	mtp_angle_l	lumbar_extension	lumbar_bending	lumbar_rotation	arm_flex_r	arm_add_r	arm_rot_r	elbow_flex_r	pro_sup_r	arm_flex_l	arm_add_l	arm_rot_l	elbow_flex_l	pro_sup_l
10.09	-0.205386	-0.00118456	0.0691618	-0.239906	0.917486	-0.613343	0.603019	-0.236905	-0.207841	0.645104	0.367837	-0.0143274	-0.126541	0.633478	-0.151473	-0.124388	0.617034	0.302653	-0.0123481	-0.126545	-0.105694	0.013561	-0.0552054	0.551345	-0.279904	0.00799707	0.810668	1.93878	0.69798	-0.25681	0.0225919	0.641402	1.74249
10.1	-0.197139	-0.000747718	0.0691909	-0.235853	0.92215	-0.613431	0.573788	-0.233368	-0.213748	0.617331	0.357403	-0.00975689	-0.126541	0.604352	-0.148688	-0.126285	0.589522	0.293633	-0.0122272	-0.126545	-0.101949	0.0133972	-0.0564528	0.522051	-0.276638	-0.00326942	0.80178	1.93814	0.670289	-0.255355	0.0115112	0.626112	1.74383
10.11	-0.189221	-0.000302608	0.0689783	-0.23186	0.926537	-0.613483	0.545453	-0.229757	-0.219486	0.590144	0.347214	-0.00451397	-0.126541	0.576023	-0.14613	-0.128301	0.562673	0.285016	-0.0117646	-0.126545	-0.0982121	0.0131523	-0.0575543	0.493459	-0.273509	-0.0131008	0.79314	1.93733	0.643051	-0.253893	0.00093941	0.611407	1.74394
10.12	-0.181621	0.000138518	0.0685026	-0.227934	0.930646	-0.613496	0.518034	-0.226064	-0.225012	0.563602	0.337376	0.00133963	-0.126541	0.548494	-0.143853	-0.130546	0.536519	0.276784	-0.0109265	-0.126545	-0.0945226	0.0128445	-0.0584713	0.465651	-0.270522	-0.0215522	0.78461	1.93634	0.616315	-0.252371	-0.00931274	0.597201	1.74323
10.13	-0.174297	0.000557198	0.0677664	-0.224082	0.934482	-0.61347	0.491514	-0.222292	-0.230308	0.537755	0.327966	0.00770366	-0.126541	0.521732	-0.141889	-0.133099	0.511067	0.268905	-0.00969371	-0.126545	-0.0909501	0.0125076	-0.0591935	0.438719	-0.267649	-0.0288415	0.776083	1.93527	0.590114	-0.250749	-0.0194149	0.583431	1.74209
10.14	-0.167181	0.000938461	0.066797	-0.220309	0.938051	-0.613408	0.465838	-0.218458	-0.235378	0.512651	0.319032	0.0144632	-0.126541	0.495665	-0.140236	-0.135999	0.486295	0.261363	-0.00804935	-0.126545	-0.0875919	0.012177	-0.0597463	0.412759	-0.264819	-0.0353171	0.767467	1.93422	0.56447	-0.249014	-0.0295055	0.570064	1.74096
10.15	-0.160189	0.00127836	0.0656409	-0.216619	0.941364	-0.613315	0.440923	-0.2146	-0.240249	0.48833	0.310612	0.0215048	-0.126541	0.470189	-0.138852	-0.139245	0.462165	0.25417	-0.00596984	-0.126545	-0.0845592	0.011879	-0.0601917	0.387858	-0.261938	-0.0413754	0.758681	1.9334	0.539381	-0.247169	-0.0396923	0.557095	1.74016
10.16	-0.15323	0.0015856	0.064353	-0.213013	0.944433	-0.613197	0.416669	-0.21077	-0.244956	0.464827	0.302749	0.0287183	-0.126541	0.445188	-0.137667	-0.142803	0.438636	0.247362	-0.00342395	-0.126545	-0.0819607	0.011626	-0.0606194	0.364087	-0.258911	-0.0473545	0.749649	1.933	0.514826	-0.245232	-0.050057	0.544549	1.73993
10.17	-0.146221	0.00187826	0.0629832	-0.209491	0.94727	-0.613059	0.392979	-0.207023	-0.249528	0.442173	0.295503	0.0360014	-0.126541	0.420554	-0.136597	-0.146628	0.415681	0.241002	-0.000379367	-0.126545	-0.0798891	0.0114162	-0.0611288	0.341488	-0.255669	-0.0534431	0.740302	1.93314	0.490769	-0.243221	-0.0606517	0.532477	1.7403
10.18	-0.139089	0.00217951	0.0615671	-0.206054	0.949887	-0.612907	0.369769	-0.203411	-0.253994	0.420394	0.288949	0.0432901	-0.126541	0.396202	-0.135567	-0.15068	0.393295	0.235158	0.00318715	-0.126545	-0.078414	0.0112336	-0.0618083	0.320066	-0.252187	-0.0596272	0.730607	1.93372	0.46717	-0.241142	-0.0714893	0.520961	1.74094
10.19	-0.131782	0.00251364	0.0601249	-0.202699	0.952295	-0.612742	0.346975	-0.199979	-0.258402	0.39952	0.283176	0.0506082	-0.126541	0.372077	-0.134522	-0.154935	0.371504	0.229896	0.00728435	-0.126545	-0.0775836	0.011049	-0.0627215	0.299785	-0.248484	-0.065722	0.720558	1.93459	0.443999	-0.238987	-0.0826021	0.510082	1.74149
10.2	-0.124261	0.00290196	0.0586656	-0.199425	0.954505	-0.612563	0.324556	-0.19677	-0.262833	0.379588	0.27827	0.0580943	-0.126541	0.348156	-0.133431	-0.159387	0.350358	0.225259	0.01191	-0.126545	-0.0774261	0.010823	-0.0638983	0.280573	-0.24462	-0.0714374	0.710176	1.9356	0.421247	-0.236727	-0.0940577	0.49991	1.74172
10.21	-0.116511	0.00335988	0.0571913	-0.196232	0.956527	-0.612367	0.302495	-0.193824	-0.267402	0.360641	0.274298	0.0659851	-0.126541	0.324455	-0.13229	-0.164044	0.329934	0.221272	0.0170568	-0.126545	-0.0779501	0.0105109	-0.0653283	0.262335	-0.240672	-0.0764663	0.699496	1.93666	0.398925	-0.234326	-0.105929	0.490508	1.74153
10.22	-0.108535	0.00389488	0.0556989	-0.193121	0.958371	-0.612149	0.280805	-0.191171	-0.27224	0.342721	0.2713	0.0745607	-0.126541	0.301023	-0.131113	-0.168919	0.310319	0.21794	0.0227108	-0.126545	-0.079146	0.010068	-0.0669563	0.244967	-0.236717	-0.0805763	0.68855	1.93775	0.377063	-0.231748	-0.118238	0.481934	1.74096
10.23	-0.100356	0.00450508	0.0541828	-0.190093	0.960045	-0.611905	0.259528	-0.188828	-0.277461	0.325876	0.269278	0.0840653	-0.126541	0.277934	-0.129931	-0.174011	0.291605	0.215255	0.0288397	-0.126545	-0.0809846	0.00945731	-0.0686848	0.228364	-0.232814	-0.0836757	0.677368	1.93887	0.355701	-0.22897	-0.130892	0.47425	1.74008
10.24	-0.0920081	0.00518068	0.0526389	-0.187151	0.961558	-0.611631	0.238723	-0.186798	-0.283134	0.310156	0.268197	0.0946374	-0.126541	0.255265	-0.128773	-0.179286	0.273866	0.213194	0.0353761	-0.126545	-0.0834248	0.00865382	-0.0703851	0.21242	-0.228993	-0.0858399	0.665982	1.94003	0.334879	-0.225981	-0.143652	0.467523	1.73894
10.25	-0.083522	0.00590794	0.0510652	-0.184295	0.96292	-0.611324	0.21845	-0.185075	-0.289263	0.295613	0.268	0.106273	-0.126541	0.233075	-0.127661	-0.184668	0.25714	0.21172	0.042202	-0.126545	-0.0864219	0.00764428	-0.0719085	0.197028	-0.225246	-0.0872917	0.654441	1.94117	0.314637	-0.222793	-0.156133	0.46181	1.73753
10.26	-0.0749176	0.00667323	0.0494596	-0.181524	0.964144	-0.610983	0.198765	-0.183641	-0.295776	0.282303	0.268607	0.118824	-0.126541	0.211388	-0.126601	-0.190037	0.241431	0.210776	0.0491426	-0.126545	-0.0899338	0.0064225	-0.0730931	0.182069	-0.22154	-0.0883388	0.642825	1.94211	0.295004	-0.219439	-0.16783	0.45716	1.73578
